<svg width="24" height="24" viewBox="0 0 24 24" fill="none" xmlns="http://www.w3.org/2000/svg">
<path d="M11.7499 23.5C8.64993 23.5 5.65 22.3 3.45 20.1C-1.15 15.5 -1.15 8.00002 3.45 3.40002C5.65 1.20002 8.64993 0 11.7499 0C14.8499 0 17.85 1.20002 20.05 3.40002C22.25 5.60002 23.55 8.60001 23.55 11.7C23.55 14.8 22.35 17.8 20.15 20C17.85 22.2 14.8499 23.5 11.7499 23.5ZM11.7499 1.90002C9.14993 1.90002 6.6499 2.89999 4.8499 4.79999C1.0499 8.59999 1.0499 14.8 4.8499 18.6C6.6499 20.4 9.14993 21.5 11.7499 21.5C14.3499 21.5 16.85 20.5 18.65 18.6C20.45 16.8 21.55 14.3 21.55 11.7C21.55 9.10001 20.55 6.59999 18.65 4.79999C16.75 2.89999 14.3499 1.90002 11.7499 1.90002Z" fill="black"/>
<path d="M14.1499 17.5C13.8499 17.5 13.65 17.4 13.45 17.2L8.6499 12.4C8.4499 12.2 8.34985 12 8.34985 11.7C8.34985 11.4 8.4499 11.2 8.6499 11L13.45 6.20002C13.85 5.80002 14.4499 5.80002 14.8499 6.20002C15.2499 6.60002 15.2499 7.19999 14.8499 7.59999L10.7499 11.7L14.8499 15.8C15.2499 16.2 15.2499 16.8 14.8499 17.2C14.6499 17.4 14.3499 17.5 14.1499 17.5Z" fill="black"/>
</svg>
